{
	"asset":{
		"generator":"Khronos glTF Blender I/O v4.0.44",
		"version":"2.0"
	},
	"scene":0,
	"scenes":[
		{
			"name":"Scene",
			"nodes":[
				0,
				1
			]
		}
	],
	"nodes":[
		{
			"name":"Empty",
			"scale":[
				5.343972682952881,
				5.343972682952881,
				5.343972682952881
			],
			"translation":[
				-1.0128475427627563,
				1.2182159423828125,
				-0.28803956508636475
			]
		},
		{
			"mesh":0,
			"name":"Circle",
			"rotation":[
				0.09214283525943756,
				0.12047159671783447,
				0.03797848895192146,
				0.9877013564109802
			],
			"scale":[
				1.9734963178634644,
				1.9734963178634644,
				1.9734963178634644
			],
			"translation":[
				0.27528905868530273,
				1.2146742343902588,
				-0.10945110023021698
			]
		}
	],
	"meshes":[
		{
			"name":"Circle",
			"primitives":[
				{
					"attributes":{
						"POSITION":0,
						"NORMAL":1,
						"TEXCOORD_0":2
					},
					"indices":3
				}
			]
		}
	],
	"accessors":[
		{
			"bufferView":0,
			"componentType":5126,
			"count":384,
			"max":[
				1.7580491304397583,
				0,
				1.7580491304397583
			],
			"min":[
				-1.7580491304397583,
				-0.1200004518032074,
				-1.7580491304397583
			],
			"type":"VEC3"
		},
		{
			"bufferView":1,
			"componentType":5126,
			"count":384,
			"type":"VEC3"
		},
		{
			"bufferView":2,
			"componentType":5126,
			"count":384,
			"type":"VEC2"
		},
		{
			"bufferView":3,
			"componentType":5123,
			"count":768,
			"type":"SCALAR"
		}
	],
	"bufferViews":[
		{
			"buffer":0,
			"byteLength":4608,
			"byteOffset":0,
			"target":34962
		},
		{
			"buffer":0,
			"byteLength":4608,
			"byteOffset":4608,
			"target":34962
		},
		{
			"buffer":0,
			"byteLength":3072,
			"byteOffset":9216,
			"target":34962
		},
		{
			"buffer":0,
			"byteLength":1536,
			"byteOffset":12288,
			"target":34963
		}
	],
	"buffers":[
		{
			"byteLength":13824,
			"uri":"porbita.bin"
		}
	]
}
