{
	"asset":{
		"generator":"Khronos glTF Blender I/O v4.0.44",
		"version":"2.0"
	},
	"scene":0,
	"scenes":[
		{
			"name":"Scene",
			"nodes":[
				0
			]
		}
	],
	"nodes":[
		{
			"mesh":0,
			"name":"orbit2"
		}
	],
	"meshes":[
		{
			"name":"Circle.002",
			"primitives":[
				{
					"attributes":{
						"POSITION":0,
						"NORMAL":1,
						"TEXCOORD_0":2
					},
					"indices":3
				}
			]
		}
	],
	"accessors":[
		{
			"bufferView":0,
			"componentType":5126,
			"count":8192,
			"max":[
				6.192694664001465,
				-0.005116610322147608,
				6.192694664001465
			],
			"min":[
				-6.192694664001465,
				-0.1176820620894432,
				-6.192694664001465
			],
			"type":"VEC3"
		},
		{
			"bufferView":1,
			"componentType":5126,
			"count":8192,
			"type":"VEC3"
		},
		{
			"bufferView":2,
			"componentType":5126,
			"count":8192,
			"type":"VEC2"
		},
		{
			"bufferView":3,
			"componentType":5123,
			"count":12288,
			"type":"SCALAR"
		}
	],
	"bufferViews":[
		{
			"buffer":0,
			"byteLength":98304,
			"byteOffset":0,
			"target":34962
		},
		{
			"buffer":0,
			"byteLength":98304,
			"byteOffset":98304,
			"target":34962
		},
		{
			"buffer":0,
			"byteLength":65536,
			"byteOffset":196608,
			"target":34962
		},
		{
			"buffer":0,
			"byteLength":24576,
			"byteOffset":262144,
			"target":34963
		}
	],
	"buffers":[
		{
			"byteLength":286720,
			"uri":"orbi2.bin"
		}
	]
}
