{
	"asset":{
		"generator":"Khronos glTF Blender I/O v4.0.44",
		"version":"2.0"
	},
	"scene":0,
	"scenes":[
		{
			"name":"Scene",
			"nodes":[
				0,
				1,
				2,
				3,
				4,
				5
			]
		}
	],
	"nodes":[
		{
			"name":"Empty",
			"scale":[
				5.343972682952881,
				5.343972682952881,
				5.343972682952881
			],
			"translation":[
				-1.1598248481750488,
				-0.3111903667449951,
				-0.10840068757534027
			]
		},
		{
			"mesh":0,
			"name":"Circle",
			"rotation":[
				0.09214283525943756,
				0.12047159671783447,
				0.03797848895192146,
				0.9877013564109802
			],
			"scale":[
				1.9734963178634644,
				1.9734963178634644,
				1.9734963178634644
			],
			"translation":[
				0.06298857927322388,
				1.2146742343902588,
				0.021195366978645325
			]
		},
		{
			"mesh":1,
			"name":"orbit1",
			"scale":[
				4.744830131530762,
				4.744830131530762,
				4.744830131530762
			]
		},
		{
			"mesh":2,
			"name":"orbit2",
			"scale":[
				6.139933109283447,
				6.139933109283447,
				6.139933109283447
			]
		},
		{
			"mesh":3,
			"name":"orbit3",
			"scale":[
				8.026124000549316,
				8.026124000549316,
				8.026124000549316
			]
		},
		{
			"mesh":4,
			"name":"orbit4",
			"scale":[
				9.698966026306152,
				9.698966026306152,
				9.698966026306152
			]
		}
	],
	"meshes":[
		{
			"name":"Circle",
			"primitives":[
				{
					"attributes":{
						"POSITION":0,
						"NORMAL":1,
						"TEXCOORD_0":2
					},
					"indices":3
				}
			]
		},
		{
			"name":"Circle.001",
			"primitives":[
				{
					"attributes":{
						"POSITION":4,
						"NORMAL":5,
						"TEXCOORD_0":6
					},
					"indices":7
				}
			]
		},
		{
			"name":"Circle.002",
			"primitives":[
				{
					"attributes":{
						"POSITION":8,
						"NORMAL":9,
						"TEXCOORD_0":10
					},
					"indices":7
				}
			]
		},
		{
			"name":"Circle.003",
			"primitives":[
				{
					"attributes":{
						"POSITION":11,
						"NORMAL":12,
						"TEXCOORD_0":13
					},
					"indices":7
				}
			]
		},
		{
			"name":"Circle.004",
			"primitives":[
				{
					"attributes":{
						"POSITION":14,
						"NORMAL":15,
						"TEXCOORD_0":16
					},
					"indices":7
				}
			]
		}
	],
	"accessors":[
		{
			"bufferView":0,
			"componentType":5126,
			"count":384,
			"max":[
				1.7580491304397583,
				0,
				1.7580491304397583
			],
			"min":[
				-1.7580491304397583,
				-0.1200004518032074,
				-1.7580491304397583
			],
			"type":"VEC3"
		},
		{
			"bufferView":1,
			"componentType":5126,
			"count":384,
			"type":"VEC3"
		},
		{
			"bufferView":2,
			"componentType":5126,
			"count":384,
			"type":"VEC2"
		},
		{
			"bufferView":3,
			"componentType":5123,
			"count":768,
			"type":"SCALAR"
		},
		{
			"bufferView":4,
			"componentType":5126,
			"count":8192,
			"max":[
				1.008593201637268,
				-0.0008333332370966673,
				1.008593201637268
			],
			"min":[
				-1.008593201637268,
				-0.019166668877005577,
				-1.008593201637268
			],
			"type":"VEC3"
		},
		{
			"bufferView":5,
			"componentType":5126,
			"count":8192,
			"type":"VEC3"
		},
		{
			"bufferView":6,
			"componentType":5126,
			"count":8192,
			"type":"VEC2"
		},
		{
			"bufferView":7,
			"componentType":5123,
			"count":12288,
			"type":"SCALAR"
		},
		{
			"bufferView":8,
			"componentType":5126,
			"count":8192,
			"max":[
				1.008593201637268,
				-0.0008333332370966673,
				1.008593201637268
			],
			"min":[
				-1.008593201637268,
				-0.019166668877005577,
				-1.008593201637268
			],
			"type":"VEC3"
		},
		{
			"bufferView":9,
			"componentType":5126,
			"count":8192,
			"type":"VEC3"
		},
		{
			"bufferView":10,
			"componentType":5126,
			"count":8192,
			"type":"VEC2"
		},
		{
			"bufferView":11,
			"componentType":5126,
			"count":8192,
			"max":[
				1.008593201637268,
				-0.0008333332370966673,
				1.008593201637268
			],
			"min":[
				-1.008593201637268,
				-0.019166668877005577,
				-1.008593201637268
			],
			"type":"VEC3"
		},
		{
			"bufferView":12,
			"componentType":5126,
			"count":8192,
			"type":"VEC3"
		},
		{
			"bufferView":13,
			"componentType":5126,
			"count":8192,
			"type":"VEC2"
		},
		{
			"bufferView":14,
			"componentType":5126,
			"count":8192,
			"max":[
				1.008593201637268,
				-0.0008333332370966673,
				1.008593201637268
			],
			"min":[
				-1.008593201637268,
				-0.019166668877005577,
				-1.008593201637268
			],
			"type":"VEC3"
		},
		{
			"bufferView":15,
			"componentType":5126,
			"count":8192,
			"type":"VEC3"
		},
		{
			"bufferView":16,
			"componentType":5126,
			"count":8192,
			"type":"VEC2"
		}
	],
	"bufferViews":[
		{
			"buffer":0,
			"byteLength":4608,
			"byteOffset":0,
			"target":34962
		},
		{
			"buffer":0,
			"byteLength":4608,
			"byteOffset":4608,
			"target":34962
		},
		{
			"buffer":0,
			"byteLength":3072,
			"byteOffset":9216,
			"target":34962
		},
		{
			"buffer":0,
			"byteLength":1536,
			"byteOffset":12288,
			"target":34963
		},
		{
			"buffer":0,
			"byteLength":98304,
			"byteOffset":13824,
			"target":34962
		},
		{
			"buffer":0,
			"byteLength":98304,
			"byteOffset":112128,
			"target":34962
		},
		{
			"buffer":0,
			"byteLength":65536,
			"byteOffset":210432,
			"target":34962
		},
		{
			"buffer":0,
			"byteLength":24576,
			"byteOffset":275968,
			"target":34963
		},
		{
			"buffer":0,
			"byteLength":98304,
			"byteOffset":300544,
			"target":34962
		},
		{
			"buffer":0,
			"byteLength":98304,
			"byteOffset":398848,
			"target":34962
		},
		{
			"buffer":0,
			"byteLength":65536,
			"byteOffset":497152,
			"target":34962
		},
		{
			"buffer":0,
			"byteLength":98304,
			"byteOffset":562688,
			"target":34962
		},
		{
			"buffer":0,
			"byteLength":98304,
			"byteOffset":660992,
			"target":34962
		},
		{
			"buffer":0,
			"byteLength":65536,
			"byteOffset":759296,
			"target":34962
		},
		{
			"buffer":0,
			"byteLength":98304,
			"byteOffset":824832,
			"target":34962
		},
		{
			"buffer":0,
			"byteLength":98304,
			"byteOffset":923136,
			"target":34962
		},
		{
			"buffer":0,
			"byteLength":65536,
			"byteOffset":1021440,
			"target":34962
		}
	],
	"buffers":[
		{
			"byteLength":1086976,
			"uri":"orbi3.bin"
		}
	]
}
