{
	"asset":{
		"generator":"Khronos glTF Blender I/O v4.0.44",
		"version":"2.0"
	},
	"scene":0,
	"scenes":[
		{
			"name":"Scene",
			"nodes":[
				0
			]
		}
	],
	"nodes":[
		{
			"mesh":0,
			"name":"orbit1"
		}
	],
	"meshes":[
		{
			"name":"Circle.001",
			"primitives":[
				{
					"attributes":{
						"POSITION":0,
						"NORMAL":1,
						"TEXCOORD_0":2
					},
					"indices":3
				}
			]
		}
	],
	"accessors":[
		{
			"bufferView":0,
			"componentType":5126,
			"count":8192,
			"max":[
				4.7856035232543945,
				-0.0039540245197713375,
				4.7856035232543945
			],
			"min":[
				-4.7856035232543945,
				-0.09094259142875671,
				-4.7856035232543945
			],
			"type":"VEC3"
		},
		{
			"bufferView":1,
			"componentType":5126,
			"count":8192,
			"type":"VEC3"
		},
		{
			"bufferView":2,
			"componentType":5126,
			"count":8192,
			"type":"VEC2"
		},
		{
			"bufferView":3,
			"componentType":5123,
			"count":12288,
			"type":"SCALAR"
		}
	],
	"bufferViews":[
		{
			"buffer":0,
			"byteLength":98304,
			"byteOffset":0,
			"target":34962
		},
		{
			"buffer":0,
			"byteLength":98304,
			"byteOffset":98304,
			"target":34962
		},
		{
			"buffer":0,
			"byteLength":65536,
			"byteOffset":196608,
			"target":34962
		},
		{
			"buffer":0,
			"byteLength":24576,
			"byteOffset":262144,
			"target":34963
		}
	],
	"buffers":[
		{
			"byteLength":286720,
			"uri":"orbi1.bin"
		}
	]
}
