{
	"asset":{
		"generator":"Khronos glTF Blender I/O v4.0.44",
		"version":"2.0"
	},
	"scene":0,
	"scenes":[
		{
			"name":"Scene",
			"nodes":[
				0
			]
		}
	],
	"nodes":[
		{
			"mesh":0,
			"name":"Circle"
		}
	],
	"meshes":[
		{
			"name":"Circle.005",
			"primitives":[
				{
					"attributes":{
						"POSITION":0,
						"NORMAL":1,
						"TEXCOORD_0":2
					},
					"indices":3
				}
			]
		}
	],
	"accessors":[
		{
			"bufferView":0,
			"componentType":5126,
			"count":2048,
			"max":[
				1.060248851776123,
				0.08098509162664413,
				1.060248851776123
			],
			"min":[
				-1.060248851776123,
				0.003521090606227517,
				-1.060248851776123
			],
			"type":"VEC3"
		},
		{
			"bufferView":1,
			"componentType":5126,
			"count":2048,
			"type":"VEC3"
		},
		{
			"bufferView":2,
			"componentType":5126,
			"count":2048,
			"type":"VEC2"
		},
		{
			"bufferView":3,
			"componentType":5123,
			"count":3072,
			"type":"SCALAR"
		}
	],
	"bufferViews":[
		{
			"buffer":0,
			"byteLength":24576,
			"byteOffset":0,
			"target":34962
		},
		{
			"buffer":0,
			"byteLength":24576,
			"byteOffset":24576,
			"target":34962
		},
		{
			"buffer":0,
			"byteLength":16384,
			"byteOffset":49152,
			"target":34962
		},
		{
			"buffer":0,
			"byteLength":6144,
			"byteOffset":65536,
			"target":34963
		}
	],
	"buffers":[
		{
			"byteLength":71680,
			"uri":"satorbi1.bin"
		}
	]
}
